<svg xmlns="http://www.w3.org/2000/svg" viewBox="0 0 900 675" role="img" aria-label="江西省抚州市崇仁县雷园村地图定位">
  <rect width="900" height="675" fill="#eef6f8"/>
  <path d="M150 0 C180 110 190 170 165 280 C138 398 170 520 245 675" fill="none" stroke="#74c7e8" stroke-width="72" opacity=".9"/>
  <path d="M0 275 C190 250 295 270 455 330 C620 392 725 410 900 384" fill="none" stroke="#89d9a5" stroke-width="18"/>
  <path d="M0 292 C190 267 295 287 455 347 C620 409 725 427 900 401" fill="none" stroke="#ffffff" stroke-width="8"/>
  <path d="M448 675 C455 570 454 475 440 350 C430 252 440 133 485 0" fill="none" stroke="#8bdca6" stroke-width="18"/>
  <path d="M466 675 C473 570 472 475 458 350 C448 252 458 133 503 0" fill="none" stroke="#ffffff" stroke-width="8"/>
  <path d="M0 520 C165 520 270 485 383 430 C515 366 675 320 900 308" fill="none" stroke="#8bdca6" stroke-width="16"/>
  <path d="M0 537 C165 537 270 502 383 447 C515 383 675 337 900 325" fill="none" stroke="#ffffff" stroke-width="7"/>
  <g fill="#99a6ad" font-family="Microsoft YaHei, Arial, sans-serif" font-size="26">
    <text x="95" y="82">三山寺</text>
    <text x="620" y="105">永红村</text>
    <text x="610" y="510">古楼岗</text>
    <text x="105" y="590">光明村</text>
    <text x="530" y="315">吕家</text>
  </g>
  <g transform="translate(450 335)">
    <circle r="58" fill="#ffffff" opacity=".95"/>
    <circle r="39" fill="#1f7aff"/>
    <circle r="13" fill="#ffffff"/>
    <path d="M0 43 C-34 0 -42 -35 0 -66 C42 -35 34 0 0 43Z" fill="#1f7aff" opacity=".18"/>
  </g>
  <g font-family="Microsoft YaHei, Arial, sans-serif" text-anchor="middle">
    <text x="450" y="430" fill="#1f2937" font-size="38" font-weight="700">雷园村</text>
    <text x="450" y="470" fill="#2563eb" font-size="26" font-weight="700">江西省抚州市崇仁县</text>
  </g>
</svg>
